<svg width="163" height="162" viewBox="0 0 163 162" fill="none" xmlns="http://www.w3.org/2000/svg">
<g opacity="0.1" filter="url(#filter0_f_566_5996)">
<circle cx="81.5" cy="81" r="71" fill="url(#paint0_radial_566_5996)"/>
</g>
<g opacity="0.15" filter="url(#filter1_f_566_5996)">
<circle cx="81.5" cy="81" r="55" fill="url(#paint1_radial_566_5996)"/>
</g>
<circle cx="81.5" cy="81" r="35" fill="url(#paint2_radial_566_5996)"/>
<path d="M75.8612 91.1L76.0862 90.85L76.2862 90.725L76.5112 90.85C76.8362 90.6 77.1112 90.325 77.3362 90.05C77.5612 89.775 77.9862 89.05 78.6612 87.925L80.2112 85.3C81.0362 83.9 85.3612 78.025 86.3362 76.925C88.5862 74.35 89.3362 73.575 89.6362 73.175C89.9112 72.825 90.0862 72.55 90.0862 72.35C90.0862 72.225 90.0112 72.025 89.8862 72.025C89.7612 72.025 89.5612 72.125 89.3112 72.3L89.5112 71.85L88.6612 72.35L88.7112 72C88.6612 72.15 88.2612 72.55 88.1612 72.55C88.0862 72.55 88.0612 72.475 88.0612 72.35V72.25L87.3612 72.6C87.3112 72.6 87.2612 72.575 87.2612 72.5C87.2612 72.425 87.3112 72.25 87.3612 72C87.0112 72.375 86.5112 72.8 85.8612 73.25C84.9862 73.85 81.5862 78.125 80.2112 80.35C79.2862 81.825 78.9112 82.7 78.7612 82.7C78.7112 82.7 78.6862 82.6 78.6612 82.4C78.2112 83.425 77.8112 84.275 77.4112 84.9C77.0112 85.525 76.6362 85.85 76.3612 85.85C76.0362 85.85 75.7612 85.225 75.4612 83.95C75.3362 83.4 75.0612 83.05 74.6612 82.85L74.5862 82.825C74.5112 82.825 74.4112 82.875 74.2862 82.95C74.1612 83.025 74.0862 83.1 74.0362 83.1H74.0112L73.5612 82.95L73.1612 83.55C73.1112 83.625 73.0112 83.65 72.9362 83.65C72.8112 83.65 72.7112 83.625 72.6612 83.55C72.5612 83.9 72.4362 84.075 72.3362 84.075C72.2612 84.075 72.1112 84.025 71.9112 83.9C72.0862 85.225 72.2362 86.1 72.3862 86.525C72.6862 87.35 73.3612 89.225 74.0112 90.475C74.0862 90.625 74.1862 90.8 74.2612 90.95C74.5112 90.8 74.5862 90.775 74.7612 90.775L74.9612 90.8C75.0862 90.85 75.1612 90.925 75.1612 91.05L75.7362 90.775C75.8362 90.775 75.8612 90.875 75.8612 91.1Z" fill="white"/>
<defs>
<filter id="filter0_f_566_5996" x="0.5" y="0" width="162" height="162" filterUnits="userSpaceOnUse" color-interpolation-filters="sRGB">
<feFlood flood-opacity="0" result="BackgroundImageFix"/>
<feBlend mode="normal" in="SourceGraphic" in2="BackgroundImageFix" result="shape"/>
<feGaussianBlur stdDeviation="5" result="effect1_foregroundBlur_566_5996"/>
</filter>
<filter id="filter1_f_566_5996" x="16.5" y="16" width="130" height="130" filterUnits="userSpaceOnUse" color-interpolation-filters="sRGB">
<feFlood flood-opacity="0" result="BackgroundImageFix"/>
<feBlend mode="normal" in="SourceGraphic" in2="BackgroundImageFix" result="shape"/>
<feGaussianBlur stdDeviation="5" result="effect1_foregroundBlur_566_5996"/>
</filter>
<radialGradient id="paint0_radial_566_5996" cx="0" cy="0" r="1" gradientUnits="userSpaceOnUse" gradientTransform="translate(10.5 -13.1163) rotate(54.4352) scale(202.981)">
<stop offset="0.046875" stop-color="#8BC83F"/>
<stop offset="0.983052" stop-color="#8BC83F"/>
</radialGradient>
<radialGradient id="paint1_radial_566_5996" cx="0" cy="0" r="1" gradientUnits="userSpaceOnUse" gradientTransform="translate(26.5 8.09303) rotate(54.4352) scale(157.238)">
<stop offset="0.046875" stop-color="#8BC83F"/>
<stop offset="0.983052" stop-color="#8BC83F"/>
</radialGradient>
<radialGradient id="paint2_radial_566_5996" cx="0" cy="0" r="1" gradientUnits="userSpaceOnUse" gradientTransform="translate(46.5 34.6047) rotate(54.4352) scale(100.061)">
<stop offset="0.046875" stop-color="#8BC83F"/>
<stop offset="0.983052" stop-color="#8BC83F"/>
</radialGradient>
</defs>
</svg>
