<svg width="163" height="162" viewBox="0 0 163 162" fill="none" xmlns="http://www.w3.org/2000/svg">
<g opacity="0.1" filter="url(#filter0_f_564_1782)">
<circle cx="81.5" cy="81" r="71" fill="url(#paint0_radial_564_1782)"/>
</g>
<g opacity="0.15" filter="url(#filter1_f_564_1782)">
<circle cx="81.5" cy="81" r="55" fill="url(#paint1_radial_564_1782)"/>
</g>
<circle cx="81.5" cy="81" r="35" fill="url(#paint2_radial_564_1782)"/>
<path d="M79.771 84.2L79.171 72.5H82.871L82.246 84.2H79.771ZM81.021 90.175C80.4377 90.175 79.9543 89.9833 79.571 89.6C79.1877 89.2167 78.996 88.7583 78.996 88.225C78.996 87.6917 79.1877 87.2417 79.571 86.875C79.9543 86.4917 80.4377 86.3 81.021 86.3C81.6043 86.3 82.0793 86.4917 82.446 86.875C82.8127 87.2417 82.996 87.6917 82.996 88.225C82.996 88.7583 82.8127 89.2167 82.446 89.6C82.0793 89.9833 81.6043 90.175 81.021 90.175Z" fill="white"/>
<defs>
<filter id="filter0_f_564_1782" x="0.5" y="0" width="162" height="162" filterUnits="userSpaceOnUse" color-interpolation-filters="sRGB">
<feFlood flood-opacity="0" result="BackgroundImageFix"/>
<feBlend mode="normal" in="SourceGraphic" in2="BackgroundImageFix" result="shape"/>
<feGaussianBlur stdDeviation="5" result="effect1_foregroundBlur_564_1782"/>
</filter>
<filter id="filter1_f_564_1782" x="16.5" y="16" width="130" height="130" filterUnits="userSpaceOnUse" color-interpolation-filters="sRGB">
<feFlood flood-opacity="0" result="BackgroundImageFix"/>
<feBlend mode="normal" in="SourceGraphic" in2="BackgroundImageFix" result="shape"/>
<feGaussianBlur stdDeviation="5" result="effect1_foregroundBlur_564_1782"/>
</filter>
<radialGradient id="paint0_radial_564_1782" cx="0" cy="0" r="1" gradientUnits="userSpaceOnUse" gradientTransform="translate(10.5 -13.1163) rotate(54.4352) scale(202.981)">
<stop offset="0.046875" stop-color="#234F68" stop-opacity="0.42"/>
<stop offset="0.983052" stop-color="#234F68"/>
</radialGradient>
<radialGradient id="paint1_radial_564_1782" cx="0" cy="0" r="1" gradientUnits="userSpaceOnUse" gradientTransform="translate(26.5 8.09303) rotate(54.4352) scale(157.238)">
<stop offset="0.046875" stop-color="#234F68" stop-opacity="0.42"/>
<stop offset="0.983052" stop-color="#234F68"/>
</radialGradient>
<radialGradient id="paint2_radial_564_1782" cx="0" cy="0" r="1" gradientUnits="userSpaceOnUse" gradientTransform="translate(46.5 34.6047) rotate(54.4352) scale(100.061)">
<stop offset="0.046875" stop-color="#234F68" stop-opacity="0.42"/>
<stop offset="0.983052" stop-color="#234F68"/>
</radialGradient>
</defs>
</svg>
