<svg width="50" height="50" viewBox="0 0 50 50" fill="none" xmlns="http://www.w3.org/2000/svg">
<rect x="0.6" y="0.6" width="48.8" height="48.8" rx="24.4" fill="white" stroke="#8BC83F" stroke-width="1.2"/>
<path d="M31.7063 28.7277C30.7031 27.5 29.9949 26.875 29.9949 23.4902C29.9949 20.3906 28.4121 19.2863 27.1094 18.75C26.9363 18.6789 26.7734 18.5156 26.7207 18.3379C26.4922 17.5602 25.8516 16.875 25 16.875C24.1484 16.875 23.5074 17.5605 23.2813 18.3387C23.2285 18.5184 23.0656 18.6789 22.8926 18.75C21.5883 19.2871 20.007 20.3875 20.007 23.4902C20.0051 26.875 19.2969 27.5 18.2938 28.7277C17.8781 29.2363 18.2422 30 18.9692 30H31.0348C31.7578 30 32.1195 29.234 31.7063 28.7277Z" stroke="#252B5C" stroke-width="1.25" stroke-linecap="round" stroke-linejoin="round"/>
<path d="M27.5 30V30.625C27.5 31.288 27.2366 31.9239 26.7678 32.3928C26.2989 32.8616 25.663 33.125 25 33.125C24.337 33.125 23.7011 32.8616 23.2322 32.3928C22.7634 31.9239 22.5 31.288 22.5 30.625V30" stroke="#252B5C" stroke-width="1.25" stroke-linecap="round" stroke-linejoin="round"/>
<circle cx="31" cy="16" r="6" fill="white"/>
<circle cx="31" cy="16" r="3" fill="#FD5F4A"/>
</svg>
