<svg width="361" height="112" viewBox="0 0 361 112" fill="none" xmlns="http://www.w3.org/2000/svg">
<path d="M-14 207.5H361V24.5H-14V207.5Z" fill="url(#paint0_linear_552_6704)"/>
<rect x="243" y="28" width="50" height="50" rx="25" fill="white" fill-opacity="0.22"/>
<path d="M268 61.3332C272.603 61.3332 276.333 57.6023 276.333 52.9998C276.333 48.3973 272.603 44.6665 268 44.6665C263.398 44.6665 259.667 48.3973 259.667 52.9998C259.667 54.5173 260.073 55.9415 260.782 57.1665L260.083 60.9165L263.833 60.2182C265.1 60.9507 266.537 61.3354 268 61.3332V61.3332Z" stroke="white" stroke-linecap="round" stroke-linejoin="round"/>
<path d="M264.67 51.3335H271.337" stroke="white" stroke-linecap="round" stroke-linejoin="round"/>
<path d="M264.67 54.667H268.003" stroke="white" stroke-linecap="round" stroke-linejoin="round"/>
<path d="M141.129 49.484C141.049 49.396 140.933 49.304 140.781 49.208C140.629 49.104 140.449 49.008 140.241 48.92C140.033 48.832 139.809 48.76 139.569 48.704C139.329 48.648 139.081 48.62 138.825 48.62C138.265 48.62 137.849 48.724 137.577 48.932C137.305 49.14 137.169 49.428 137.169 49.796C137.169 50.068 137.245 50.284 137.397 50.444C137.549 50.596 137.781 50.724 138.093 50.828C138.405 50.932 138.797 51.044 139.269 51.164C139.845 51.3 140.345 51.464 140.769 51.656C141.193 51.84 141.517 52.088 141.741 52.4C141.965 52.712 142.077 53.124 142.077 53.636C142.077 54.068 141.997 54.44 141.837 54.752C141.677 55.064 141.453 55.32 141.165 55.52C140.877 55.712 140.545 55.856 140.169 55.952C139.793 56.04 139.389 56.084 138.957 56.084C138.533 56.084 138.109 56.04 137.685 55.952C137.269 55.864 136.869 55.736 136.485 55.568C136.109 55.392 135.761 55.18 135.441 54.932L136.053 53.78C136.157 53.884 136.305 54 136.497 54.128C136.697 54.248 136.925 54.364 137.181 54.476C137.445 54.588 137.729 54.684 138.033 54.764C138.345 54.836 138.661 54.872 138.981 54.872C139.517 54.872 139.925 54.78 140.205 54.596C140.493 54.404 140.637 54.132 140.637 53.78C140.637 53.492 140.545 53.264 140.361 53.096C140.177 52.92 139.909 52.772 139.557 52.652C139.205 52.532 138.785 52.412 138.297 52.292C137.737 52.14 137.269 51.976 136.893 51.8C136.517 51.616 136.233 51.384 136.041 51.104C135.857 50.816 135.765 50.452 135.765 50.012C135.765 49.452 135.901 48.98 136.173 48.596C136.445 48.204 136.813 47.912 137.277 47.72C137.749 47.52 138.277 47.42 138.861 47.42C139.245 47.42 139.609 47.464 139.953 47.552C140.297 47.632 140.617 47.744 140.913 47.888C141.217 48.032 141.493 48.196 141.741 48.38L141.129 49.484ZM146.62 55.676C146.508 55.732 146.368 55.792 146.2 55.856C146.032 55.92 145.84 55.976 145.624 56.024C145.416 56.072 145.2 56.096 144.976 56.096C144.704 56.096 144.452 56.048 144.22 55.952C143.988 55.856 143.8 55.704 143.656 55.496C143.52 55.28 143.452 55.004 143.452 54.668V50.744H142.624V49.724H143.452V47.66H144.772V49.724H146.14V50.744H144.772V54.248C144.788 54.464 144.856 54.624 144.976 54.728C145.104 54.832 145.26 54.884 145.444 54.884C145.628 54.884 145.804 54.852 145.972 54.788C146.14 54.724 146.264 54.672 146.344 54.632L146.62 55.676ZM147.078 54.164C147.078 53.764 147.19 53.416 147.414 53.12C147.646 52.816 147.962 52.584 148.362 52.424C148.762 52.256 149.226 52.172 149.754 52.172C150.034 52.172 150.318 52.192 150.606 52.232C150.902 52.272 151.162 52.336 151.386 52.424V52.028C151.386 51.588 151.254 51.244 150.99 50.996C150.726 50.748 150.346 50.624 149.85 50.624C149.498 50.624 149.166 50.688 148.854 50.816C148.542 50.936 148.21 51.108 147.858 51.332L147.414 50.444C147.83 50.164 148.246 49.956 148.662 49.82C149.086 49.684 149.53 49.616 149.994 49.616C150.834 49.616 151.494 49.84 151.974 50.288C152.462 50.728 152.706 51.356 152.706 52.172V54.512C152.706 54.664 152.73 54.772 152.778 54.836C152.834 54.9 152.926 54.936 153.054 54.944V56C152.934 56.024 152.826 56.04 152.73 56.048C152.634 56.056 152.554 56.06 152.49 56.06C152.21 56.06 151.998 55.992 151.854 55.856C151.71 55.72 151.626 55.56 151.602 55.376L151.566 55.016C151.294 55.368 150.946 55.64 150.522 55.832C150.098 56.024 149.67 56.12 149.238 56.12C148.822 56.12 148.45 56.036 148.122 55.868C147.794 55.692 147.538 55.456 147.354 55.16C147.17 54.864 147.078 54.532 147.078 54.164ZM151.074 54.548C151.17 54.444 151.246 54.34 151.302 54.236C151.358 54.132 151.386 54.04 151.386 53.96V53.24C151.162 53.152 150.926 53.088 150.678 53.048C150.43 53 150.186 52.976 149.946 52.976C149.466 52.976 149.074 53.072 148.77 53.264C148.474 53.456 148.326 53.72 148.326 54.056C148.326 54.24 148.374 54.416 148.47 54.584C148.574 54.752 148.718 54.888 148.902 54.992C149.094 55.096 149.33 55.148 149.61 55.148C149.898 55.148 150.174 55.092 150.438 54.98C150.702 54.868 150.914 54.724 151.074 54.548ZM157.836 50.864C157.324 50.872 156.868 50.988 156.468 51.212C156.076 51.436 155.796 51.752 155.628 52.16V56H154.308V49.724H155.532V51.128C155.748 50.696 156.032 50.352 156.384 50.096C156.736 49.832 157.108 49.688 157.5 49.664C157.58 49.664 157.644 49.664 157.692 49.664C157.748 49.664 157.796 49.668 157.836 49.676V50.864ZM162.288 55.676C162.176 55.732 162.036 55.792 161.868 55.856C161.7 55.92 161.508 55.976 161.292 56.024C161.084 56.072 160.868 56.096 160.644 56.096C160.372 56.096 160.12 56.048 159.888 55.952C159.656 55.856 159.468 55.704 159.324 55.496C159.188 55.28 159.12 55.004 159.12 54.668V50.744H158.292V49.724H159.12V47.66H160.44V49.724H161.808V50.744H160.44V54.248C160.456 54.464 160.524 54.624 160.644 54.728C160.772 54.832 160.928 54.884 161.112 54.884C161.296 54.884 161.472 54.852 161.64 54.788C161.808 54.724 161.932 54.672 162.012 54.632L162.288 55.676ZM165.795 51.68C165.795 51.16 165.887 50.652 166.071 50.156C166.255 49.652 166.523 49.196 166.875 48.788C167.235 48.372 167.671 48.044 168.183 47.804C168.695 47.556 169.275 47.432 169.923 47.432C170.691 47.432 171.355 47.608 171.915 47.96C172.475 48.304 172.891 48.748 173.163 49.292L172.107 50C171.947 49.656 171.743 49.384 171.495 49.184C171.255 48.984 170.991 48.844 170.703 48.764C170.423 48.684 170.147 48.644 169.875 48.644C169.427 48.644 169.035 48.736 168.699 48.92C168.363 49.096 168.079 49.332 167.847 49.628C167.623 49.924 167.451 50.256 167.331 50.624C167.219 50.992 167.163 51.36 167.163 51.728C167.163 52.136 167.231 52.532 167.367 52.916C167.503 53.292 167.691 53.628 167.931 53.924C168.179 54.212 168.471 54.44 168.807 54.608C169.143 54.776 169.511 54.86 169.911 54.86C170.183 54.86 170.467 54.812 170.763 54.716C171.059 54.62 171.331 54.472 171.579 54.272C171.835 54.064 172.035 53.792 172.179 53.456L173.295 54.092C173.119 54.516 172.843 54.876 172.467 55.172C172.099 55.468 171.683 55.692 171.219 55.844C170.763 55.996 170.311 56.072 169.863 56.072C169.263 56.072 168.715 55.948 168.219 55.7C167.723 55.444 167.295 55.108 166.935 54.692C166.575 54.268 166.295 53.796 166.095 53.276C165.895 52.748 165.795 52.216 165.795 51.68ZM179.998 56H178.678V52.484C178.678 51.916 178.574 51.492 178.366 51.212C178.158 50.932 177.866 50.792 177.49 50.792C177.258 50.792 177.018 50.856 176.77 50.984C176.522 51.112 176.302 51.288 176.11 51.512C175.918 51.728 175.778 51.98 175.69 52.268V56H174.37V47.24H175.69V50.984C175.93 50.56 176.258 50.228 176.674 49.988C177.09 49.74 177.538 49.616 178.018 49.616C178.41 49.616 178.734 49.684 178.99 49.82C179.246 49.956 179.446 50.144 179.59 50.384C179.742 50.616 179.846 50.888 179.902 51.2C179.966 51.504 179.998 51.828 179.998 52.172V56ZM181.074 54.164C181.074 53.764 181.186 53.416 181.41 53.12C181.642 52.816 181.958 52.584 182.358 52.424C182.758 52.256 183.222 52.172 183.75 52.172C184.03 52.172 184.314 52.192 184.602 52.232C184.898 52.272 185.158 52.336 185.382 52.424V52.028C185.382 51.588 185.25 51.244 184.986 50.996C184.722 50.748 184.342 50.624 183.846 50.624C183.494 50.624 183.162 50.688 182.85 50.816C182.538 50.936 182.206 51.108 181.854 51.332L181.41 50.444C181.826 50.164 182.242 49.956 182.658 49.82C183.082 49.684 183.526 49.616 183.99 49.616C184.83 49.616 185.49 49.84 185.97 50.288C186.458 50.728 186.702 51.356 186.702 52.172V54.512C186.702 54.664 186.726 54.772 186.774 54.836C186.83 54.9 186.922 54.936 187.05 54.944V56C186.93 56.024 186.822 56.04 186.726 56.048C186.63 56.056 186.55 56.06 186.486 56.06C186.206 56.06 185.994 55.992 185.85 55.856C185.706 55.72 185.622 55.56 185.598 55.376L185.562 55.016C185.29 55.368 184.942 55.64 184.518 55.832C184.094 56.024 183.666 56.12 183.234 56.12C182.818 56.12 182.446 56.036 182.118 55.868C181.79 55.692 181.534 55.456 181.35 55.16C181.166 54.864 181.074 54.532 181.074 54.164ZM185.07 54.548C185.166 54.444 185.242 54.34 185.298 54.236C185.354 54.132 185.382 54.04 185.382 53.96V53.24C185.158 53.152 184.922 53.088 184.674 53.048C184.426 53 184.182 52.976 183.942 52.976C183.462 52.976 183.07 53.072 182.766 53.264C182.47 53.456 182.322 53.72 182.322 54.056C182.322 54.24 182.37 54.416 182.466 54.584C182.57 54.752 182.714 54.888 182.898 54.992C183.09 55.096 183.326 55.148 183.606 55.148C183.894 55.148 184.17 55.092 184.434 54.98C184.698 54.868 184.91 54.724 185.07 54.548ZM191.749 55.676C191.637 55.732 191.497 55.792 191.329 55.856C191.161 55.92 190.969 55.976 190.753 56.024C190.545 56.072 190.329 56.096 190.105 56.096C189.833 56.096 189.581 56.048 189.349 55.952C189.117 55.856 188.929 55.704 188.785 55.496C188.649 55.28 188.581 55.004 188.581 54.668V50.744H187.753V49.724H188.581V47.66H189.901V49.724H191.269V50.744H189.901V54.248C189.917 54.464 189.985 54.624 190.105 54.728C190.233 54.832 190.389 54.884 190.573 54.884C190.757 54.884 190.933 54.852 191.101 54.788C191.269 54.724 191.393 54.672 191.473 54.632L191.749 55.676Z" fill="white"/>
<rect x="52" width="278" height="63" rx="10" fill="#8BC83F"/>
<path d="M136.733 34.632L135.325 30.784C135.256 30.6133 135.184 30.4107 135.109 30.176C135.034 29.9413 134.96 29.688 134.885 29.416C134.816 29.688 134.744 29.944 134.669 30.184C134.594 30.4187 134.522 30.624 134.453 30.8L133.053 34.632H136.733ZM140.533 39H138.869C138.682 39 138.53 38.9547 138.413 38.864C138.296 38.768 138.208 38.6507 138.149 38.512L137.285 36.152H132.493L131.629 38.512C131.586 38.6347 131.504 38.7467 131.381 38.848C131.258 38.9493 131.106 39 130.925 39H129.245L133.797 27.432H135.989L140.533 39ZM146.879 32.888C146.655 32.616 146.409 32.424 146.143 32.312C145.881 32.2 145.599 32.144 145.295 32.144C144.996 32.144 144.727 32.2 144.487 32.312C144.247 32.424 144.041 32.5947 143.871 32.824C143.7 33.048 143.569 33.336 143.479 33.688C143.388 34.0347 143.343 34.4453 143.343 34.92C143.343 35.4 143.38 35.808 143.455 36.144C143.535 36.4747 143.647 36.7467 143.791 36.96C143.935 37.168 144.111 37.32 144.319 37.416C144.527 37.5067 144.759 37.552 145.015 37.552C145.425 37.552 145.775 37.4667 146.063 37.296C146.351 37.1253 146.623 36.8827 146.879 36.568V32.888ZM148.855 27.112V39H147.647C147.385 39 147.22 38.88 147.151 38.64L146.983 37.848C146.652 38.2267 146.271 38.5333 145.839 38.768C145.412 39.0027 144.913 39.12 144.343 39.12C143.895 39.12 143.484 39.0267 143.111 38.84C142.737 38.6533 142.415 38.384 142.143 38.032C141.876 37.6747 141.668 37.2347 141.519 36.712C141.375 36.1893 141.303 35.592 141.303 34.92C141.303 34.312 141.385 33.7467 141.551 33.224C141.716 32.7013 141.953 32.248 142.263 31.864C142.572 31.48 142.943 31.1813 143.375 30.968C143.807 30.7493 144.292 30.64 144.831 30.64C145.289 30.64 145.681 30.712 146.007 30.856C146.332 31 146.623 31.1947 146.879 31.44V27.112H148.855ZM156.437 32.888C156.213 32.616 155.967 32.424 155.701 32.312C155.439 32.2 155.157 32.144 154.853 32.144C154.554 32.144 154.285 32.2 154.045 32.312C153.805 32.424 153.599 32.5947 153.429 32.824C153.258 33.048 153.127 33.336 153.037 33.688C152.946 34.0347 152.901 34.4453 152.901 34.92C152.901 35.4 152.938 35.808 153.013 36.144C153.093 36.4747 153.205 36.7467 153.349 36.96C153.493 37.168 153.669 37.32 153.877 37.416C154.085 37.5067 154.317 37.552 154.573 37.552C154.983 37.552 155.333 37.4667 155.621 37.296C155.909 37.1253 156.181 36.8827 156.437 36.568V32.888ZM158.413 27.112V39H157.205C156.943 39 156.778 38.88 156.709 38.64L156.541 37.848C156.21 38.2267 155.829 38.5333 155.397 38.768C154.97 39.0027 154.471 39.12 153.901 39.12C153.453 39.12 153.042 39.0267 152.669 38.84C152.295 38.6533 151.973 38.384 151.701 38.032C151.434 37.6747 151.226 37.2347 151.077 36.712C150.933 36.1893 150.861 35.592 150.861 34.92C150.861 34.312 150.943 33.7467 151.109 33.224C151.274 32.7013 151.511 32.248 151.821 31.864C152.13 31.48 152.501 31.1813 152.933 30.968C153.365 30.7493 153.85 30.64 154.389 30.64C154.847 30.64 155.239 30.712 155.565 30.856C155.89 31 156.181 31.1947 156.437 31.44V27.112H158.413ZM175.278 27.432V39H174.174C174.003 39 173.859 38.9733 173.741 38.92C173.629 38.8613 173.52 38.7653 173.413 38.632L167.373 30.92C167.405 31.272 167.421 31.5973 167.421 31.896V39H165.525V27.432H166.653C166.744 27.432 166.821 27.4373 166.885 27.448C166.955 27.4533 167.013 27.4693 167.061 27.496C167.115 27.5173 167.165 27.552 167.213 27.6C167.261 27.6427 167.315 27.7013 167.373 27.776L173.438 35.52C173.421 35.3333 173.408 35.1493 173.398 34.968C173.387 34.7867 173.381 34.6187 173.381 34.464V27.432H175.278ZM183.06 33.952C183.06 33.696 183.022 33.456 182.948 33.232C182.878 33.0027 182.772 32.8027 182.628 32.632C182.484 32.4613 182.3 32.328 182.076 32.232C181.857 32.1307 181.601 32.08 181.308 32.08C180.737 32.08 180.286 32.2427 179.956 32.568C179.63 32.8933 179.422 33.3547 179.332 33.952H183.06ZM179.292 35.144C179.324 35.5653 179.398 35.9307 179.516 36.24C179.633 36.544 179.788 36.7973 179.98 37C180.172 37.1973 180.398 37.3467 180.66 37.448C180.926 37.544 181.22 37.592 181.54 37.592C181.86 37.592 182.134 37.5547 182.364 37.48C182.598 37.4053 182.801 37.3227 182.972 37.232C183.148 37.1413 183.3 37.0587 183.428 36.984C183.561 36.9093 183.689 36.872 183.812 36.872C183.977 36.872 184.1 36.9333 184.18 37.056L184.748 37.776C184.529 38.032 184.284 38.248 184.012 38.424C183.74 38.5947 183.454 38.7333 183.156 38.84C182.862 38.9413 182.561 39.0133 182.252 39.056C181.948 39.0987 181.652 39.12 181.364 39.12C180.793 39.12 180.262 39.0267 179.772 38.84C179.281 38.648 178.854 38.368 178.492 38C178.129 37.6267 177.844 37.168 177.636 36.624C177.428 36.0747 177.324 35.44 177.324 34.72C177.324 34.16 177.414 33.6347 177.596 33.144C177.777 32.648 178.036 32.2187 178.372 31.856C178.713 31.488 179.126 31.1973 179.612 30.984C180.102 30.7707 180.654 30.664 181.268 30.664C181.785 30.664 182.262 30.7467 182.7 30.912C183.137 31.0773 183.513 31.32 183.828 31.64C184.142 31.9547 184.388 32.344 184.564 32.808C184.745 33.2667 184.836 33.792 184.836 34.384C184.836 34.6827 184.804 34.8853 184.74 34.992C184.676 35.0933 184.553 35.144 184.372 35.144H179.292ZM198.409 30.792L195.801 39H194.217C194.036 39 193.91 38.8827 193.841 38.648L192.369 33.904C192.321 33.744 192.276 33.5867 192.233 33.432C192.196 33.272 192.164 33.112 192.137 32.952C192.105 33.112 192.068 33.2747 192.025 33.44C191.988 33.6 191.945 33.76 191.897 33.92L190.401 38.648C190.337 38.8827 190.196 39 189.977 39H188.457L185.857 30.792H187.433C187.577 30.792 187.7 30.8267 187.801 30.896C187.902 30.9653 187.969 31.0533 188.001 31.16L189.177 35.544C189.236 35.784 189.286 36.0187 189.329 36.248C189.377 36.4773 189.417 36.7067 189.449 36.936C189.508 36.7067 189.569 36.4773 189.633 36.248C189.702 36.0187 189.774 35.784 189.849 35.544L191.209 31.144C191.241 31.0373 191.302 30.9493 191.393 30.88C191.489 30.8107 191.604 30.776 191.737 30.776H192.609C192.748 30.776 192.865 30.8107 192.961 30.88C193.062 30.9493 193.129 31.0373 193.161 31.144L194.481 35.544C194.55 35.784 194.614 36.0213 194.673 36.256C194.737 36.4853 194.798 36.7147 194.857 36.944C194.926 36.4907 195.025 36.024 195.153 35.544L196.361 31.16C196.398 31.0533 196.465 30.9653 196.561 30.896C196.657 30.8267 196.772 30.792 196.905 30.792H198.409ZM211.143 37.224V39H204.367V27.432H206.519V37.224H211.143ZM214.896 30.792V39H212.912V30.792H214.896ZM215.168 28.4C215.168 28.5707 215.133 28.7307 215.064 28.88C214.995 29.0293 214.901 29.16 214.784 29.272C214.672 29.384 214.539 29.4747 214.384 29.544C214.229 29.608 214.064 29.64 213.888 29.64C213.717 29.64 213.555 29.608 213.4 29.544C213.251 29.4747 213.12 29.384 213.008 29.272C212.896 29.16 212.805 29.0293 212.736 28.88C212.672 28.7307 212.64 28.5707 212.64 28.4C212.64 28.224 212.672 28.0587 212.736 27.904C212.805 27.7493 212.896 27.616 213.008 27.504C213.12 27.392 213.251 27.304 213.4 27.24C213.555 27.1707 213.717 27.136 213.888 27.136C214.064 27.136 214.229 27.1707 214.384 27.24C214.539 27.304 214.672 27.392 214.784 27.504C214.901 27.616 214.995 27.7493 215.064 27.904C215.133 28.0587 215.168 28.224 215.168 28.4ZM222.398 32.392C222.345 32.4773 222.289 32.5387 222.23 32.576C222.172 32.608 222.097 32.624 222.006 32.624C221.91 32.624 221.806 32.5973 221.694 32.544C221.588 32.4907 221.462 32.432 221.318 32.368C221.174 32.2987 221.009 32.2373 220.822 32.184C220.641 32.1307 220.425 32.104 220.174 32.104C219.785 32.104 219.478 32.1867 219.254 32.352C219.036 32.5173 218.926 32.7333 218.926 33C218.926 33.176 218.982 33.3253 219.094 33.448C219.212 33.5653 219.364 33.6693 219.55 33.76C219.742 33.8507 219.958 33.9333 220.198 34.008C220.438 34.0773 220.681 34.1547 220.926 34.24C221.177 34.3253 221.422 34.424 221.662 34.536C221.902 34.6427 222.116 34.7813 222.302 34.952C222.494 35.1173 222.646 35.3173 222.758 35.552C222.876 35.7867 222.934 36.0693 222.934 36.4C222.934 36.7947 222.862 37.16 222.718 37.496C222.58 37.8267 222.372 38.1147 222.094 38.36C221.817 38.6 221.473 38.7893 221.062 38.928C220.657 39.0613 220.188 39.128 219.654 39.128C219.372 39.128 219.094 39.1013 218.822 39.048C218.556 39 218.297 38.9307 218.046 38.84C217.801 38.7493 217.572 38.6427 217.358 38.52C217.15 38.3973 216.966 38.264 216.806 38.12L217.262 37.368C217.321 37.2773 217.39 37.208 217.47 37.16C217.55 37.112 217.652 37.088 217.774 37.088C217.897 37.088 218.012 37.1227 218.118 37.192C218.23 37.2613 218.358 37.336 218.502 37.416C218.646 37.496 218.814 37.5707 219.006 37.64C219.204 37.7093 219.452 37.744 219.75 37.744C219.985 37.744 220.185 37.7173 220.35 37.664C220.521 37.6053 220.66 37.5307 220.766 37.44C220.878 37.3493 220.958 37.2453 221.006 37.128C221.06 37.0053 221.086 36.88 221.086 36.752C221.086 36.56 221.028 36.4027 220.91 36.28C220.798 36.1573 220.646 36.0507 220.454 35.96C220.268 35.8693 220.052 35.7893 219.806 35.72C219.566 35.6453 219.318 35.5653 219.062 35.48C218.812 35.3947 218.564 35.296 218.318 35.184C218.078 35.0667 217.862 34.92 217.67 34.744C217.484 34.568 217.332 34.352 217.214 34.096C217.102 33.84 217.046 33.5307 217.046 33.168C217.046 32.832 217.113 32.512 217.246 32.208C217.38 31.904 217.574 31.64 217.83 31.416C218.092 31.1867 218.414 31.0053 218.798 30.872C219.188 30.7333 219.636 30.664 220.142 30.664C220.708 30.664 221.222 30.7573 221.686 30.944C222.15 31.1307 222.537 31.376 222.846 31.68L222.398 32.392ZM233.182 39H231.206V32.272H227.398V36.72C227.398 36.976 227.459 37.176 227.582 37.32C227.71 37.464 227.883 37.536 228.102 37.536C228.224 37.536 228.326 37.5227 228.406 37.496C228.491 37.464 228.563 37.432 228.622 37.4C228.686 37.368 228.742 37.3387 228.79 37.312C228.838 37.28 228.886 37.264 228.934 37.264C228.992 37.264 229.04 37.28 229.078 37.312C229.115 37.3387 229.155 37.3813 229.198 37.44L229.79 38.4C229.502 38.64 229.171 38.8213 228.798 38.944C228.424 39.0667 228.038 39.128 227.638 39.128C226.923 39.128 226.374 38.928 225.99 38.528C225.611 38.1227 225.422 37.5653 225.422 36.856V32.272H224.582C224.475 32.272 224.384 32.2373 224.31 32.168C224.235 32.0987 224.198 31.9947 224.198 31.856V31.072L225.518 30.848L225.934 28.616C225.96 28.5093 226.011 28.4267 226.086 28.368C226.16 28.3093 226.256 28.28 226.374 28.28H227.398V30.864H233.182V39ZM233.526 28.368C233.526 28.5387 233.491 28.7013 233.422 28.856C233.352 29.0053 233.259 29.136 233.142 29.248C233.03 29.36 232.894 29.4507 232.734 29.52C232.579 29.584 232.414 29.616 232.238 29.616C232.067 29.616 231.907 29.584 231.758 29.52C231.608 29.4507 231.478 29.36 231.366 29.248C231.254 29.136 231.163 29.0053 231.094 28.856C231.03 28.7013 230.998 28.5387 230.998 28.368C230.998 28.192 231.03 28.0293 231.094 27.88C231.163 27.7253 231.254 27.592 231.366 27.48C231.478 27.3627 231.608 27.272 231.758 27.208C231.907 27.1387 232.067 27.104 232.238 27.104C232.414 27.104 232.579 27.1387 232.734 27.208C232.894 27.272 233.03 27.3627 233.142 27.48C233.259 27.592 233.352 27.7253 233.422 27.88C233.491 28.0293 233.526 28.192 233.526 28.368ZM237.526 31.8C237.692 31.6347 237.865 31.4827 238.046 31.344C238.233 31.2 238.428 31.08 238.63 30.984C238.838 30.8827 239.06 30.8053 239.294 30.752C239.529 30.6933 239.785 30.664 240.062 30.664C240.51 30.664 240.908 30.7413 241.254 30.896C241.601 31.0453 241.889 31.2587 242.118 31.536C242.353 31.808 242.529 32.136 242.646 32.52C242.769 32.8987 242.83 33.3173 242.83 33.776V39H240.854V33.776C240.854 33.2747 240.74 32.888 240.51 32.616C240.281 32.3387 239.932 32.2 239.462 32.2C239.121 32.2 238.801 32.2773 238.502 32.432C238.204 32.5867 237.921 32.7973 237.654 33.064V39H235.678V30.792H236.886C237.142 30.792 237.31 30.912 237.39 31.152L237.526 31.8ZM248.19 34.696C248.435 34.696 248.648 34.664 248.83 34.6C249.011 34.5307 249.16 34.4373 249.278 34.32C249.4 34.2027 249.491 34.0613 249.55 33.896C249.614 33.7307 249.646 33.5493 249.646 33.352C249.646 32.9467 249.523 32.6267 249.278 32.392C249.038 32.152 248.675 32.032 248.19 32.032C247.704 32.032 247.339 32.152 247.094 32.392C246.854 32.6267 246.734 32.9467 246.734 33.352C246.734 33.544 246.763 33.7227 246.822 33.888C246.886 34.0533 246.976 34.1973 247.094 34.32C247.216 34.4373 247.368 34.5307 247.55 34.6C247.736 34.664 247.95 34.696 248.19 34.696ZM250.422 39.368C250.422 39.208 250.374 39.0773 250.278 38.976C250.182 38.8747 250.051 38.7973 249.886 38.744C249.72 38.6853 249.526 38.6427 249.302 38.616C249.083 38.5893 248.848 38.5707 248.598 38.56C248.352 38.544 248.096 38.5307 247.83 38.52C247.568 38.5093 247.312 38.488 247.062 38.456C246.843 38.5787 246.664 38.7227 246.526 38.888C246.392 39.0533 246.326 39.2453 246.326 39.464C246.326 39.608 246.36 39.7413 246.43 39.864C246.504 39.992 246.619 40.1013 246.774 40.192C246.934 40.2827 247.139 40.352 247.39 40.4C247.64 40.4533 247.947 40.48 248.31 40.48C248.678 40.48 248.995 40.4507 249.262 40.392C249.528 40.3387 249.747 40.2613 249.918 40.16C250.094 40.064 250.222 39.9467 250.302 39.808C250.382 39.6747 250.422 39.528 250.422 39.368ZM252.39 31.072V31.808C252.39 32.0427 252.248 32.1867 251.966 32.24L251.23 32.376C251.342 32.6587 251.398 32.968 251.398 33.304C251.398 33.7093 251.315 34.0773 251.15 34.408C250.99 34.7333 250.766 35.0107 250.478 35.24C250.19 35.4693 249.848 35.648 249.454 35.776C249.064 35.8987 248.643 35.96 248.19 35.96C248.03 35.96 247.875 35.952 247.726 35.936C247.576 35.92 247.43 35.8987 247.286 35.872C247.03 36.0267 246.902 36.2 246.902 36.392C246.902 36.5573 246.976 36.68 247.126 36.76C247.28 36.8347 247.483 36.888 247.734 36.92C247.984 36.952 248.27 36.9733 248.59 36.984C248.91 36.9893 249.238 37.0053 249.574 37.032C249.91 37.0587 250.238 37.1067 250.558 37.176C250.878 37.24 251.163 37.344 251.414 37.488C251.664 37.632 251.864 37.8293 252.014 38.08C252.168 38.3253 252.246 38.6427 252.246 39.032C252.246 39.3947 252.155 39.7467 251.974 40.088C251.798 40.4293 251.539 40.7333 251.198 41C250.862 41.2667 250.446 41.48 249.95 41.64C249.459 41.8053 248.899 41.888 248.27 41.888C247.651 41.888 247.112 41.8267 246.654 41.704C246.195 41.5867 245.814 41.4267 245.51 41.224C245.206 41.0267 244.979 40.7973 244.83 40.536C244.68 40.2747 244.606 40.0027 244.606 39.72C244.606 39.336 244.72 39.016 244.95 38.76C245.184 38.4987 245.504 38.2907 245.91 38.136C245.691 38.024 245.518 37.8747 245.39 37.688C245.262 37.5013 245.198 37.256 245.198 36.952C245.198 36.8293 245.219 36.704 245.262 36.576C245.31 36.4427 245.376 36.312 245.462 36.184C245.552 36.056 245.664 35.936 245.798 35.824C245.931 35.7067 246.088 35.6027 246.27 35.512C245.854 35.288 245.526 34.9893 245.286 34.616C245.051 34.2427 244.934 33.8053 244.934 33.304C244.934 32.8987 245.014 32.5333 245.174 32.208C245.339 31.8773 245.566 31.5973 245.854 31.368C246.147 31.1333 246.491 30.9547 246.886 30.832C247.286 30.7093 247.72 30.648 248.19 30.648C248.542 30.648 248.872 30.6853 249.182 30.76C249.491 30.8293 249.774 30.9333 250.03 31.072H252.39Z" fill="white"/>
<defs>
<linearGradient id="paint0_linear_552_6704" x1="187.5" y1="112" x2="187.5" y2="-71" gradientUnits="userSpaceOnUse">
<stop offset="0.124169" stop-color="white"/>
<stop offset="1" stop-color="white" stop-opacity="0"/>
</linearGradient>
</defs>
</svg>
